<?xml version="1.0" standalone="no"?>
<!DOCTYPE svg PUBLIC "-//W3C//DTD SVG 20010904//EN"
 "http://www.w3.org/TR/2001/REC-SVG-20010904/DTD/svg10.dtd">
<svg version="1.0" xmlns="http://www.w3.org/2000/svg"
 width="1024.000000pt" height="1024.000000pt" viewBox="0 0 1024.000000 1024.000000"
 preserveAspectRatio="xMidYMid meet">
<metadata>
Created by potrace 1.11, written by Peter Selinger 2001-2013
</metadata>
<g transform="translate(0.000000,1024.000000) scale(0.100000,-0.100000)"
fill="#000000" stroke="none">
<path d="M0 5120 l0 -5120 5120 0 5120 0 0 5120 0 5120 -5120 0 -5120 0 0
-5120z m3358 2668 c17 -40 339 -845 717 -1788 995 -2483 1034 -2580 1043
-2597 5 -9 12 -12 15 -7 4 8 915 2279 1595 3977 l195 487 468 0 469 0 0 -2745
0 -2745 -360 0 -360 0 0 1098 c0 934 4 1220 25 1922 13 454 27 917 30 1030 3
113 8 242 11 288 3 54 1 82 -5 82 -6 0 -11 -4 -11 -9 0 -8 -199 -504 -404
-1006 -29 -71 -352 -867 -717 -1767 l-664 -1638 -280 0 -280 0 -147 363 c-724
1786 -1630 4012 -1638 4026 -7 11 -9 -6 -10 -57 0 -71 39 -1349 60 -1942 5
-157 10 -759 10 -1337 l0 -1053 -365 0 -365 0 0 2745 0 2745 469 0 469 0 30
-72z"/>
</g>
</svg>
